<mxfile host="app.diagrams.net" agent="Mozilla/5.0 (Windows NT 10.0; Win64; x64) AppleWebKit/537.36 (KHTML, like Gecko) Chrome/133.0.0.0 Safari/537.36" version="26.0.16">
  <diagram name="Page-1" id="1PzHWQp8trW3ChT9F782">
    <mxGraphModel dx="880" dy="1568" grid="1" gridSize="10" guides="1" tooltips="1" connect="1" arrows="1" fold="1" page="1" pageScale="1" pageWidth="850" pageHeight="1100" math="0" shadow="0">
      <root>
        <mxCell id="0" />
        <mxCell id="1" parent="0" />
        <mxCell id="GoM7R5mn0nxjx29yzPK3-1" value="Auth Service" style="whiteSpace=wrap;html=1;aspect=fixed;" vertex="1" parent="1">
          <mxGeometry x="80" y="150" width="130" height="130" as="geometry" />
        </mxCell>
        <mxCell id="GoM7R5mn0nxjx29yzPK3-37" value="" style="edgeStyle=orthogonalEdgeStyle;rounded=0;orthogonalLoop=1;jettySize=auto;html=1;" edge="1" parent="1" source="GoM7R5mn0nxjx29yzPK3-2" target="GoM7R5mn0nxjx29yzPK3-3">
          <mxGeometry relative="1" as="geometry" />
        </mxCell>
        <mxCell id="GoM7R5mn0nxjx29yzPK3-2" value="Product Service" style="whiteSpace=wrap;html=1;aspect=fixed;" vertex="1" parent="1">
          <mxGeometry x="250" y="150" width="130" height="130" as="geometry" />
        </mxCell>
        <mxCell id="GoM7R5mn0nxjx29yzPK3-38" value="" style="edgeStyle=orthogonalEdgeStyle;rounded=0;orthogonalLoop=1;jettySize=auto;html=1;" edge="1" parent="1" source="GoM7R5mn0nxjx29yzPK3-3" target="GoM7R5mn0nxjx29yzPK3-4">
          <mxGeometry relative="1" as="geometry" />
        </mxCell>
        <mxCell id="GoM7R5mn0nxjx29yzPK3-3" value="Stock Service" style="whiteSpace=wrap;html=1;aspect=fixed;" vertex="1" parent="1">
          <mxGeometry x="440" y="150" width="140" height="140" as="geometry" />
        </mxCell>
        <mxCell id="GoM7R5mn0nxjx29yzPK3-4" value="Order Service" style="whiteSpace=wrap;html=1;aspect=fixed;" vertex="1" parent="1">
          <mxGeometry x="630" y="150" width="130" height="130" as="geometry" />
        </mxCell>
        <mxCell id="GoM7R5mn0nxjx29yzPK3-5" value="React FrontEnd" style="whiteSpace=wrap;html=1;aspect=fixed;" vertex="1" parent="1">
          <mxGeometry x="320" y="330" width="140" height="140" as="geometry" />
        </mxCell>
        <mxCell id="GoM7R5mn0nxjx29yzPK3-6" value="API GateWay" style="whiteSpace=wrap;html=1;aspect=fixed;" vertex="1" parent="1">
          <mxGeometry x="340" y="-40" width="140" height="140" as="geometry" />
        </mxCell>
        <mxCell id="GoM7R5mn0nxjx29yzPK3-7" value="" style="endArrow=classic;html=1;rounded=0;exitX=0.429;exitY=1;exitDx=0;exitDy=0;exitPerimeter=0;entryX=0.692;entryY=-0.023;entryDx=0;entryDy=0;entryPerimeter=0;" edge="1" parent="1" source="GoM7R5mn0nxjx29yzPK3-6" target="GoM7R5mn0nxjx29yzPK3-1">
          <mxGeometry width="50" height="50" relative="1" as="geometry">
            <mxPoint x="400" y="270" as="sourcePoint" />
            <mxPoint x="450" y="220" as="targetPoint" />
          </mxGeometry>
        </mxCell>
        <mxCell id="GoM7R5mn0nxjx29yzPK3-8" value="" style="endArrow=classic;html=1;rounded=0;exitX=0.429;exitY=1;exitDx=0;exitDy=0;exitPerimeter=0;entryX=0.692;entryY=-0.023;entryDx=0;entryDy=0;entryPerimeter=0;" edge="1" parent="1">
          <mxGeometry width="50" height="50" relative="1" as="geometry">
            <mxPoint x="400" y="100" as="sourcePoint" />
            <mxPoint x="170" y="147" as="targetPoint" />
          </mxGeometry>
        </mxCell>
        <mxCell id="GoM7R5mn0nxjx29yzPK3-9" value="" style="endArrow=classic;html=1;rounded=0;entryX=0.554;entryY=-0.031;entryDx=0;entryDy=0;entryPerimeter=0;" edge="1" parent="1" target="GoM7R5mn0nxjx29yzPK3-2">
          <mxGeometry width="50" height="50" relative="1" as="geometry">
            <mxPoint x="400" y="100" as="sourcePoint" />
            <mxPoint x="140" y="167" as="targetPoint" />
          </mxGeometry>
        </mxCell>
        <mxCell id="GoM7R5mn0nxjx29yzPK3-10" value="" style="endArrow=classic;html=1;rounded=0;entryX=0.25;entryY=0;entryDx=0;entryDy=0;" edge="1" parent="1" target="GoM7R5mn0nxjx29yzPK3-3">
          <mxGeometry width="50" height="50" relative="1" as="geometry">
            <mxPoint x="400" y="100" as="sourcePoint" />
            <mxPoint x="190" y="177" as="targetPoint" />
          </mxGeometry>
        </mxCell>
        <mxCell id="GoM7R5mn0nxjx29yzPK3-11" value="" style="endArrow=classic;html=1;rounded=0;entryX=0.208;entryY=-0.015;entryDx=0;entryDy=0;entryPerimeter=0;" edge="1" parent="1" target="GoM7R5mn0nxjx29yzPK3-4">
          <mxGeometry width="50" height="50" relative="1" as="geometry">
            <mxPoint x="400" y="100" as="sourcePoint" />
            <mxPoint x="190" y="207" as="targetPoint" />
          </mxGeometry>
        </mxCell>
        <mxCell id="GoM7R5mn0nxjx29yzPK3-13" value="" style="endArrow=none;html=1;rounded=0;" edge="1" parent="1">
          <mxGeometry width="50" height="50" relative="1" as="geometry">
            <mxPoint x="130" y="300" as="sourcePoint" />
            <mxPoint x="710" y="300" as="targetPoint" />
          </mxGeometry>
        </mxCell>
        <mxCell id="GoM7R5mn0nxjx29yzPK3-15" value="" style="endArrow=classic;html=1;rounded=0;entryX=0.443;entryY=-0.007;entryDx=0;entryDy=0;entryPerimeter=0;" edge="1" parent="1" target="GoM7R5mn0nxjx29yzPK3-5">
          <mxGeometry width="50" height="50" relative="1" as="geometry">
            <mxPoint x="380" y="300" as="sourcePoint" />
            <mxPoint x="450" y="220" as="targetPoint" />
          </mxGeometry>
        </mxCell>
        <mxCell id="GoM7R5mn0nxjx29yzPK3-16" value="" style="endArrow=none;html=1;rounded=0;exitX=0.331;exitY=1.015;exitDx=0;exitDy=0;exitPerimeter=0;" edge="1" parent="1" source="GoM7R5mn0nxjx29yzPK3-1">
          <mxGeometry width="50" height="50" relative="1" as="geometry">
            <mxPoint x="400" y="270" as="sourcePoint" />
            <mxPoint x="130" y="300" as="targetPoint" />
          </mxGeometry>
        </mxCell>
        <mxCell id="GoM7R5mn0nxjx29yzPK3-17" value="" style="endArrow=none;html=1;rounded=0;exitX=0.431;exitY=1.015;exitDx=0;exitDy=0;exitPerimeter=0;" edge="1" parent="1" source="GoM7R5mn0nxjx29yzPK3-2">
          <mxGeometry width="50" height="50" relative="1" as="geometry">
            <mxPoint x="310" y="290" as="sourcePoint" />
            <mxPoint x="306" y="300" as="targetPoint" />
          </mxGeometry>
        </mxCell>
        <mxCell id="GoM7R5mn0nxjx29yzPK3-18" value="" style="endArrow=none;html=1;rounded=0;exitX=0.5;exitY=1;exitDx=0;exitDy=0;" edge="1" parent="1" source="GoM7R5mn0nxjx29yzPK3-3">
          <mxGeometry width="50" height="50" relative="1" as="geometry">
            <mxPoint x="510" y="310" as="sourcePoint" />
            <mxPoint x="510" y="310" as="targetPoint" />
          </mxGeometry>
        </mxCell>
        <mxCell id="GoM7R5mn0nxjx29yzPK3-19" value="Auth Service" style="whiteSpace=wrap;html=1;aspect=fixed;" vertex="1" parent="1">
          <mxGeometry x="700" y="510" width="130" height="130" as="geometry" />
        </mxCell>
        <mxCell id="GoM7R5mn0nxjx29yzPK3-20" value="Product Service" style="whiteSpace=wrap;html=1;aspect=fixed;" vertex="1" parent="1">
          <mxGeometry x="870" y="510" width="130" height="130" as="geometry" />
        </mxCell>
        <mxCell id="GoM7R5mn0nxjx29yzPK3-21" value="Stock Service" style="whiteSpace=wrap;html=1;aspect=fixed;" vertex="1" parent="1">
          <mxGeometry x="1060" y="510" width="140" height="140" as="geometry" />
        </mxCell>
        <mxCell id="GoM7R5mn0nxjx29yzPK3-22" value="Order Service" style="whiteSpace=wrap;html=1;aspect=fixed;" vertex="1" parent="1">
          <mxGeometry x="1250" y="510" width="130" height="130" as="geometry" />
        </mxCell>
        <mxCell id="GoM7R5mn0nxjx29yzPK3-23" value="React FrontEnd" style="whiteSpace=wrap;html=1;aspect=fixed;" vertex="1" parent="1">
          <mxGeometry x="940" y="690" width="140" height="140" as="geometry" />
        </mxCell>
        <mxCell id="GoM7R5mn0nxjx29yzPK3-24" value="API GateWay" style="whiteSpace=wrap;html=1;aspect=fixed;" vertex="1" parent="1">
          <mxGeometry x="960" y="320" width="140" height="140" as="geometry" />
        </mxCell>
        <mxCell id="GoM7R5mn0nxjx29yzPK3-25" value="" style="endArrow=classic;html=1;rounded=0;exitX=0.429;exitY=1;exitDx=0;exitDy=0;exitPerimeter=0;entryX=0.692;entryY=-0.023;entryDx=0;entryDy=0;entryPerimeter=0;" edge="1" parent="1" source="GoM7R5mn0nxjx29yzPK3-24" target="GoM7R5mn0nxjx29yzPK3-19">
          <mxGeometry width="50" height="50" relative="1" as="geometry">
            <mxPoint x="1020" y="630" as="sourcePoint" />
            <mxPoint x="1070" y="580" as="targetPoint" />
          </mxGeometry>
        </mxCell>
        <mxCell id="GoM7R5mn0nxjx29yzPK3-26" value="" style="endArrow=classic;html=1;rounded=0;exitX=0.429;exitY=1;exitDx=0;exitDy=0;exitPerimeter=0;entryX=0.692;entryY=-0.023;entryDx=0;entryDy=0;entryPerimeter=0;" edge="1" parent="1">
          <mxGeometry width="50" height="50" relative="1" as="geometry">
            <mxPoint x="1020" y="460" as="sourcePoint" />
            <mxPoint x="790" y="507" as="targetPoint" />
          </mxGeometry>
        </mxCell>
        <mxCell id="GoM7R5mn0nxjx29yzPK3-27" value="" style="endArrow=classic;html=1;rounded=0;entryX=0.554;entryY=-0.031;entryDx=0;entryDy=0;entryPerimeter=0;" edge="1" parent="1" target="GoM7R5mn0nxjx29yzPK3-20">
          <mxGeometry width="50" height="50" relative="1" as="geometry">
            <mxPoint x="1020" y="460" as="sourcePoint" />
            <mxPoint x="760" y="527" as="targetPoint" />
          </mxGeometry>
        </mxCell>
        <mxCell id="GoM7R5mn0nxjx29yzPK3-28" value="" style="endArrow=classic;html=1;rounded=0;entryX=0.25;entryY=0;entryDx=0;entryDy=0;" edge="1" parent="1" target="GoM7R5mn0nxjx29yzPK3-21">
          <mxGeometry width="50" height="50" relative="1" as="geometry">
            <mxPoint x="1020" y="460" as="sourcePoint" />
            <mxPoint x="810" y="537" as="targetPoint" />
          </mxGeometry>
        </mxCell>
        <mxCell id="GoM7R5mn0nxjx29yzPK3-29" value="" style="endArrow=classic;html=1;rounded=0;entryX=0.208;entryY=-0.015;entryDx=0;entryDy=0;entryPerimeter=0;" edge="1" parent="1" target="GoM7R5mn0nxjx29yzPK3-22">
          <mxGeometry width="50" height="50" relative="1" as="geometry">
            <mxPoint x="1020" y="460" as="sourcePoint" />
            <mxPoint x="810" y="567" as="targetPoint" />
          </mxGeometry>
        </mxCell>
        <mxCell id="GoM7R5mn0nxjx29yzPK3-30" value="" style="endArrow=none;html=1;rounded=0;" edge="1" parent="1">
          <mxGeometry width="50" height="50" relative="1" as="geometry">
            <mxPoint x="750" y="660" as="sourcePoint" />
            <mxPoint x="1330" y="660" as="targetPoint" />
          </mxGeometry>
        </mxCell>
        <mxCell id="GoM7R5mn0nxjx29yzPK3-31" value="" style="endArrow=classic;html=1;rounded=0;entryX=0.443;entryY=-0.007;entryDx=0;entryDy=0;entryPerimeter=0;" edge="1" parent="1" target="GoM7R5mn0nxjx29yzPK3-23">
          <mxGeometry width="50" height="50" relative="1" as="geometry">
            <mxPoint x="1000" y="660" as="sourcePoint" />
            <mxPoint x="1070" y="580" as="targetPoint" />
          </mxGeometry>
        </mxCell>
        <mxCell id="GoM7R5mn0nxjx29yzPK3-32" value="" style="endArrow=none;html=1;rounded=0;exitX=0.331;exitY=1.015;exitDx=0;exitDy=0;exitPerimeter=0;" edge="1" parent="1" source="GoM7R5mn0nxjx29yzPK3-19">
          <mxGeometry width="50" height="50" relative="1" as="geometry">
            <mxPoint x="1020" y="630" as="sourcePoint" />
            <mxPoint x="750" y="660" as="targetPoint" />
          </mxGeometry>
        </mxCell>
        <mxCell id="GoM7R5mn0nxjx29yzPK3-33" value="" style="endArrow=none;html=1;rounded=0;exitX=0.331;exitY=1.015;exitDx=0;exitDy=0;exitPerimeter=0;" edge="1" parent="1">
          <mxGeometry width="50" height="50" relative="1" as="geometry">
            <mxPoint x="930" y="650" as="sourcePoint" />
            <mxPoint x="937" y="668" as="targetPoint" />
          </mxGeometry>
        </mxCell>
        <mxCell id="GoM7R5mn0nxjx29yzPK3-34" value="" style="endArrow=none;html=1;rounded=0;exitX=0.331;exitY=1.015;exitDx=0;exitDy=0;exitPerimeter=0;" edge="1" parent="1">
          <mxGeometry width="50" height="50" relative="1" as="geometry">
            <mxPoint x="1130" y="670" as="sourcePoint" />
            <mxPoint x="1137" y="688" as="targetPoint" />
          </mxGeometry>
        </mxCell>
        <mxCell id="GoM7R5mn0nxjx29yzPK3-35" value="" style="endArrow=none;html=1;rounded=0;exitX=0.431;exitY=1.015;exitDx=0;exitDy=0;exitPerimeter=0;" edge="1" parent="1">
          <mxGeometry width="50" height="50" relative="1" as="geometry">
            <mxPoint x="700" y="290" as="sourcePoint" />
            <mxPoint x="700" y="308" as="targetPoint" />
            <Array as="points">
              <mxPoint x="710" y="280" />
            </Array>
          </mxGeometry>
        </mxCell>
      </root>
    </mxGraphModel>
  </diagram>
</mxfile>
